<svg width="89" height="30" viewBox="0 0 89 30" fill="none" xmlns="http://www.w3.org/2000/svg">
<path d="M8.4147 12.2349C8.68593 11.9686 9.12669 11.5692 9.73696 11.0367C10.3472 10.5042 11.0027 9.91019 11.7034 9.25478C12.4267 8.59936 13.1387 7.91322 13.8394 7.19635C14.5401 6.45901 15.1277 5.77286 15.6024 5.13793C16.077 4.48251 16.3709 3.89878 16.4839 3.38673C16.6195 2.87469 16.4613 2.49577 16.0092 2.24999C15.8058 2.1271 15.4894 2.09638 15.0599 2.15782C14.6305 2.19879 14.1558 2.30119 13.6359 2.46505C13.1161 2.60842 12.5736 2.803 12.0085 3.04878C11.4661 3.29456 10.9575 3.57107 10.4829 3.8783C10.6185 3.89878 10.788 3.94998 10.9914 4.03191C11.1948 4.11384 11.3757 4.22649 11.5339 4.36986C11.6921 4.49275 11.8051 4.63612 11.8729 4.79998C11.9407 4.96383 11.9294 5.12769 11.839 5.29154C11.5452 5.80359 11.24 6.36684 10.9236 6.98129C10.6298 7.57527 10.3359 8.18972 10.0421 8.82466C9.74826 9.43911 9.45443 10.0433 9.16059 10.6373C8.88936 11.2313 8.64073 11.7638 8.4147 12.2349ZM5.1599 24.5854C5.52154 24.4421 5.9736 24.186 6.51606 23.8174C7.05853 23.4282 7.6349 22.9776 8.24518 22.4656C8.85545 21.9535 9.47703 21.4107 10.1099 20.8373C10.7428 20.2433 11.3192 19.6595 11.839 19.0861C12.3815 18.5126 12.8335 17.98 13.1952 17.4885C13.5794 16.9969 13.8281 16.5975 13.9411 16.2903C13.263 16.6794 12.4493 17.212 11.5 17.8879C10.5733 18.5638 9.66915 19.2909 8.78765 20.0692C7.90614 20.8475 7.12634 21.636 6.44826 22.4348C5.77017 23.2336 5.34072 23.9505 5.1599 24.5854ZM8.55032 4.92287C7.35237 5.78311 6.31264 6.67407 5.43113 7.59575C4.54962 8.51743 3.90544 9.34694 3.49859 10.0843C3.09174 10.8216 2.95612 11.4054 3.09174 11.8355C3.22736 12.2656 3.70202 12.4295 4.51572 12.3271C4.42531 12.7572 4.13147 13.0234 3.63421 13.1258C3.13695 13.2283 2.60578 13.1873 2.04071 13.003C1.49824 12.8186 1.01228 12.5011 0.58283 12.0505C0.153377 11.5795 -0.0387477 10.9855 0.00645793 10.2686C0.0516635 9.65417 0.311596 8.96803 0.786255 8.2102C1.28352 7.45237 1.91639 6.68431 2.68489 5.906C3.45339 5.12769 4.32359 4.3801 5.29551 3.66324C6.29004 2.92589 7.30716 2.28071 8.34689 1.7277C9.38662 1.15421 10.4263 0.713853 11.4661 0.406626C12.5058 0.0993971 13.4664 -0.0337348 14.3479 0.00722888C15.0486 0.0481925 15.7267 0.24277 16.3822 0.590962C17.0377 0.918671 17.5914 1.33855 18.0435 1.85059C18.5181 2.34216 18.8459 2.88493 19.0267 3.4789C19.2301 4.07287 19.2188 4.63612 18.9928 5.16865C18.7668 5.70118 18.4616 6.21322 18.0774 6.70479C17.6931 7.17587 17.2863 7.61623 16.8568 8.02587C16.45 8.4355 16.0431 8.80418 15.6363 9.13188C15.2294 9.45959 14.8904 9.72586 14.6192 9.93068C15.2746 9.99212 15.9188 10.2379 16.5517 10.668C17.2072 11.0777 17.7157 11.559 18.0774 12.112C18.9137 11.8457 19.6709 11.5999 20.349 11.3746C21.0497 11.1493 21.7956 11.006 22.5867 10.9445C22.7223 10.924 22.8127 11.006 22.8579 11.1903C22.9257 11.3542 22.9483 11.559 22.9257 11.8048C22.9257 12.0301 22.8692 12.2451 22.7562 12.4499C22.6432 12.6548 22.4736 12.7776 22.2476 12.8186C21.5243 12.962 20.8123 13.1463 20.1116 13.3716C19.411 13.5969 18.8459 13.812 18.4164 14.0168C18.2808 14.9999 17.9079 16.0343 17.2976 17.1198C16.7099 18.2053 15.964 19.2806 15.0599 20.3457C14.1784 21.4107 13.1726 22.4246 12.0424 23.3872C10.9123 24.3294 9.73696 25.1487 8.51641 25.8451C7.36367 26.521 6.31264 26.9101 5.36332 27.0125C4.414 27.1354 3.66811 27.0228 3.12564 26.6746C2.60578 26.3469 2.33455 25.8246 2.31194 25.1077C2.31194 24.3908 2.66229 23.5409 3.36297 22.5577C3.99585 21.6975 4.78695 20.8168 5.73627 19.9156C6.68559 19.0144 7.69141 18.1644 8.75374 17.3656C9.81607 16.5463 10.8784 15.7987 11.9407 15.1228C13.0257 14.4469 14.0089 13.8939 14.8904 13.4638C14.913 13.4433 14.9243 13.3614 14.9243 13.218C14.9469 13.0746 14.9356 12.921 14.8904 12.7572C14.8678 12.5933 14.8113 12.4295 14.7209 12.2656C14.6305 12.1017 14.4949 11.9891 14.314 11.9277C13.9524 11.8048 13.5116 11.8355 12.9918 12.0198C12.4719 12.2042 11.9181 12.4807 11.3305 12.8493C10.7654 13.218 10.189 13.6481 9.60135 14.1397C9.03627 14.6313 8.49381 15.1126 7.97394 15.5837C7.47668 16.0547 7.03593 16.4951 6.65168 16.9047C6.26743 17.3144 5.9962 17.6216 5.83798 17.8264C5.54414 18.1746 5.25031 18.3487 4.95647 18.3487C4.68524 18.3487 4.4253 18.2975 4.17667 18.1951C3.86023 18.0517 3.6116 17.8571 3.43078 17.6114C3.24996 17.3451 3.22736 17.0379 3.36297 16.6897C3.6116 15.9728 3.95065 15.0819 4.3801 14.0168C4.83216 12.9313 5.30681 11.8355 5.80408 10.7295C6.30134 9.60297 6.7986 8.51743 7.29586 7.47286C7.79312 6.42828 8.21127 5.57829 8.55032 4.92287ZM30.6084 12.8493C30.6988 12.7674 30.8118 12.7367 30.9474 12.7572C31.1056 12.7776 31.2526 12.8289 31.3882 12.9108C31.5238 12.9927 31.6255 13.1054 31.6933 13.2487C31.7611 13.3716 31.7498 13.5048 31.6594 13.6481C31.3656 14.4469 30.9474 15.2457 30.405 16.0445C29.8851 16.8228 29.2861 17.5602 28.608 18.2565C27.93 18.9529 27.218 19.5879 26.4721 20.1614C25.7262 20.7348 24.9916 21.2059 24.2683 21.5746C23.9293 21.7385 23.5676 21.7999 23.1834 21.7589C22.7991 21.718 22.4149 21.6258 22.0306 21.4824C21.6464 21.3186 21.296 21.1342 20.9796 20.9294C20.6632 20.7246 20.4032 20.53 20.1998 20.3457C19.7703 19.936 19.533 19.3933 19.4878 18.7174C19.4426 18.021 19.533 17.2734 19.759 16.4746C19.9625 15.6758 20.2789 14.8463 20.7084 13.9861C21.1378 13.1258 21.6125 12.3168 22.1323 11.559C22.6748 10.8012 23.2399 10.1355 23.8275 9.562C24.4152 8.98851 24.969 8.56863 25.4888 8.30237C25.8053 8.159 26.0991 8.08731 26.3704 8.08731C26.6416 8.06683 26.9241 8.10779 27.218 8.2102C27.5118 8.29213 27.8056 8.42526 28.0995 8.6096C28.4159 8.77345 28.7663 8.95779 29.1505 9.16261C29.693 9.46984 29.9416 9.85899 29.8964 10.3301C29.8964 10.5554 29.7947 10.9548 29.5913 11.5283C29.4104 12.1017 29.1392 12.706 28.7776 13.3409C28.4385 13.9554 28.0091 14.5391 27.4892 15.0921C26.9919 15.6246 26.4269 15.9831 25.794 16.1674C25.3419 16.2698 24.9464 16.3005 24.6073 16.2596C24.2683 16.2186 23.8954 16.1162 23.4885 15.9523C23.3755 16.1572 23.2512 16.4644 23.1156 16.874C22.9799 17.2632 22.8782 17.6626 22.8104 18.0722C22.7426 18.4818 22.72 18.8505 22.7426 19.1782C22.7652 19.4854 22.9008 19.6595 23.1495 19.7005C23.5111 19.762 24.0197 19.5879 24.6751 19.1782C25.3532 18.7686 26.0539 18.2361 26.7772 17.5806C27.5005 16.9047 28.2125 16.1469 28.9132 15.3072C29.6139 14.4674 30.1789 13.6481 30.6084 12.8493ZM27.218 10.5759C26.9919 10.7192 26.6981 10.9957 26.3365 11.4054C25.9974 11.7945 25.6584 12.2144 25.3193 12.665C25.0029 13.1156 24.7204 13.5355 24.4717 13.9246C24.2457 14.3138 24.1327 14.5596 24.1327 14.662C24.5395 14.7234 24.9125 14.6108 25.2515 14.324C25.6132 14.0373 25.9296 13.6789 26.2008 13.2487C26.4947 12.7981 26.7207 12.3271 26.8789 11.8355C27.0597 11.3439 27.1728 10.924 27.218 10.5759ZM57.201 9.2855C57.2914 8.58912 56.715 8.00538 55.4719 7.5343C54.2513 7.04274 52.6465 6.70479 50.6575 6.52045C49.0075 8.93731 47.6513 11.5999 46.589 14.5084C45.4588 17.5192 44.826 20.1101 44.6904 22.2812C44.5321 24.4728 45.1085 25.6505 46.4195 25.8143C46.0352 26.1216 45.5154 26.2342 44.8599 26.1523C44.227 26.0908 43.5715 25.7734 42.8934 25.1999C42.2831 24.6878 41.8424 23.8583 41.5712 22.7113C41.4356 21.5439 41.5825 20.0589 42.0119 18.2565C41.9215 18.3385 41.8311 18.4306 41.7407 18.533C41.6729 18.615 41.5825 18.6867 41.4695 18.7481C40.3845 19.8746 39.4917 20.6017 38.791 20.9294C38.0451 21.1752 37.3331 21.1035 36.6551 20.7144C35.977 20.3047 35.5927 19.8336 35.5023 19.3011C35.4571 18.912 35.5136 18.4511 35.6718 17.9186C35.717 17.6318 35.7735 17.3553 35.8414 17.0891C35.9318 16.8228 36.0222 16.5668 36.1126 16.321C35.9318 16.5463 35.7283 16.7818 35.5023 17.0276C35.2989 17.2734 35.0729 17.5397 34.8242 17.8264C34.3948 18.4204 33.9201 18.9939 33.4003 19.5469C32.903 20.0794 32.3605 20.6017 31.7729 21.1138C31.4338 21.3391 30.9818 21.3903 30.4167 21.2674C29.829 21.1445 29.2865 20.9089 28.7893 20.5607C28.3146 20.2126 28.0886 19.8336 28.1112 19.424C28.2016 18.5842 28.405 17.7445 28.7215 16.9047C29.0379 16.0445 29.4561 15.174 29.9759 14.2933C30.4958 13.3921 31.0496 12.6036 31.6372 11.9277C32.2249 11.2313 32.8239 10.6373 33.4342 10.1457C34.18 9.65417 34.8355 9.49032 35.4006 9.65417C35.9657 9.77706 36.5533 10.0433 37.1636 10.453C37.2766 10.5144 37.3896 10.5861 37.5027 10.668C37.6157 10.7295 37.7287 10.7909 37.8417 10.8524C37.9773 10.6885 38.1129 10.5451 38.2486 10.4222C38.4068 10.2789 38.5537 10.1253 38.6893 9.9614C38.7797 9.83851 38.8814 9.71562 38.9944 9.59273C39.1301 9.46983 39.2657 9.34694 39.4013 9.22405C39.6273 8.99875 39.989 8.94755 40.4862 9.07044C40.9609 9.21381 41.379 9.44935 41.7407 9.77706C42.0797 10.1048 42.1701 10.4325 42.0119 10.7602C40.4749 13.1975 39.503 15.0511 39.0962 16.321C38.6893 17.6114 38.6554 18.2873 38.9944 18.3487C39.5595 18.3077 40.2037 17.8264 40.927 16.9047C41.3112 16.4337 41.6842 15.9319 42.0458 15.3993C42.4301 14.8668 42.8143 14.3035 43.1986 13.7096C43.5376 13.1156 43.8314 12.5831 44.0801 12.112C44.3513 11.6204 44.5547 11.2005 44.6904 10.8524C45.052 10.074 45.4136 9.31622 45.7753 8.57888C46.1595 7.84153 46.5438 7.11442 46.928 6.39756C42.9273 6.41804 39.6386 7.22707 37.0619 8.82466C36.8811 8.94755 36.5872 8.91683 36.1804 8.73249C35.9996 8.63008 35.8188 8.51743 35.6379 8.39454C35.4797 8.25117 35.3215 8.08731 35.1633 7.90298C34.8016 7.57527 34.5869 7.23732 34.5191 6.88912C34.4287 6.5819 34.5756 6.32587 34.9598 6.12106C36.9941 5.42467 39.1188 4.91263 41.3338 4.58492C43.5489 4.25721 45.8544 4.11384 48.2503 4.1548C48.7023 3.51986 49.1092 2.9771 49.4708 2.52649C49.8325 2.07589 50.1828 1.70722 50.5219 1.42048C50.8157 1.25662 51.1321 1.24638 51.4712 1.38975C51.7876 1.51264 52.1041 1.68674 52.4205 1.91204C52.5109 1.99397 52.5787 2.04517 52.6239 2.06565C52.8274 2.16806 52.9969 2.29095 53.1325 2.43433C53.2681 2.5777 53.3698 2.71083 53.4376 2.83372C53.5959 3.05902 53.5732 3.27408 53.3698 3.4789C52.9856 3.78613 52.6578 4.09335 52.3866 4.40058C53.1099 4.48251 53.7541 4.58492 54.3191 4.70781C54.8842 4.81022 55.3815 4.93311 55.8109 5.07648C56.489 5.34275 56.9976 5.82407 57.3366 6.52045C57.5174 6.86864 57.6418 7.19635 57.7096 7.50358C57.8 7.81081 57.8452 8.11803 57.8452 8.42526C57.8452 8.99875 57.6305 9.2855 57.201 9.2855ZM36.2482 12.9722C36.2708 12.9313 36.2934 12.8698 36.316 12.7879C36.3386 12.706 36.3499 12.6138 36.3499 12.5114C36.3499 12.3271 36.3047 12.153 36.2143 11.9891C36.1691 11.8048 36.0448 11.6819 35.8414 11.6204C35.6605 11.6204 35.4458 11.7228 35.1972 11.9277C34.6773 12.4602 34.2027 13.0132 33.7732 13.5867C33.3437 14.1602 32.9482 14.7746 32.5866 15.43C31.8633 16.7614 31.4903 17.6933 31.4677 18.2258C31.7615 18.0005 32.1006 17.7035 32.4848 17.3349C32.8691 16.9457 33.3211 16.4644 33.841 15.8909C34.3383 15.3379 34.779 14.8156 35.1633 14.324C35.5701 13.8325 35.9318 13.3819 36.2482 12.9722ZM60.1967 12.6957C60.5132 12.6548 60.8748 12.7264 61.2817 12.9108C61.6885 13.0951 61.9823 13.259 62.1632 13.4023C62.0728 13.4843 62.0049 13.5355 61.9597 13.556C61.9371 13.556 61.9032 13.556 61.858 13.556C61.8128 13.5355 61.745 13.515 61.6546 13.4945C61.5868 13.474 61.4851 13.474 61.3495 13.4945C61.0104 13.556 60.5132 13.7608 59.8577 14.109C59.2022 14.4367 58.5241 14.8156 57.8234 15.2457C57.1227 15.6553 56.4673 16.065 55.857 16.4746C55.2693 16.8638 54.8851 17.1505 54.7042 17.3349C54.8172 17.4987 54.9303 17.6523 55.0433 17.7957C55.1563 17.9391 55.2693 18.0927 55.3823 18.2565C55.7214 18.8095 55.8683 19.3626 55.8231 19.9156C55.7779 20.4686 55.5857 21.0113 55.2467 21.5439C54.9303 22.0559 54.5008 22.5372 53.9583 22.9878C53.4159 23.4384 52.8395 23.8174 52.2292 24.1246C51.8224 24.3294 51.359 24.4728 50.8392 24.5547C50.3419 24.6571 49.8559 24.6878 49.3813 24.6469C48.884 24.6264 48.432 24.5445 48.0251 24.4011C47.5957 24.2577 47.2679 24.0529 47.0419 23.7866C46.7933 23.4999 46.6689 23.1619 46.6689 22.7728C46.6463 22.3836 46.8046 21.933 47.1436 21.421C47.6635 20.6427 48.3415 19.9156 49.1779 19.2397C49.9916 18.5638 50.8279 17.9288 51.6868 17.3349C51.2799 16.8023 50.8618 16.3005 50.4323 15.8294C50.0255 15.3379 49.7429 14.7951 49.5847 14.2011C49.4491 13.6686 49.4265 13.1361 49.5169 12.6036C49.5847 12.0505 49.7429 11.5283 49.9916 11.0367C50.2402 10.5451 50.5566 10.0945 50.9409 9.68489C51.3477 9.25478 51.7998 8.8861 52.297 8.57888C52.5457 8.4355 52.8395 8.37406 53.1785 8.39454C53.5176 8.39454 53.8566 8.44574 54.1957 8.54815C54.5347 8.65056 54.8399 8.77345 55.1111 8.91683C55.4049 9.0602 55.631 9.18309 55.7892 9.2855C56.3768 8.42526 56.8854 7.79032 57.3149 7.38069C57.7669 6.95057 58.1286 6.62286 58.3998 6.39756C58.558 6.29515 58.7727 6.32587 59.044 6.48973C59.3152 6.6331 59.5638 6.83792 59.7899 7.10418C60.0385 7.34997 60.2193 7.60599 60.3323 7.87225C60.4679 8.13852 60.4566 8.32285 60.2984 8.42526C59.9368 8.65056 59.5073 9.00899 59.0101 9.50056C58.5128 9.99212 58.0495 10.5144 57.62 11.0674C57.1905 11.6204 56.8515 12.1632 56.6029 12.6957C56.3768 13.2078 56.3429 13.6276 56.5012 13.9554C56.3881 13.9963 56.2299 13.9861 56.0265 13.9246C55.8457 13.8632 55.6536 13.771 55.4501 13.6481C55.2693 13.5252 55.0998 13.3716 54.9416 13.1873C54.7833 12.9825 54.6703 12.7674 54.6025 12.5421C54.5573 12.3783 54.5573 12.1939 54.6025 11.9891C54.6477 11.7638 54.7042 11.5487 54.772 11.3439C54.8399 11.1391 54.919 10.9445 55.0094 10.7602C55.0998 10.5759 55.1676 10.4325 55.2128 10.3301C54.7833 10.3096 54.3765 10.5246 53.9922 10.9752C53.6306 11.4054 53.3594 11.9277 53.1785 12.5421C52.9977 13.1566 52.9299 13.8017 52.9751 14.4776C53.0203 15.1331 53.2577 15.6861 53.6871 16.1367C54.1166 15.8909 54.6138 15.5837 55.1789 15.215C55.7666 14.8463 56.3542 14.4879 56.9419 14.1397C57.5296 13.771 58.106 13.4536 58.671 13.1873C59.2587 12.921 59.7673 12.7572 60.1967 12.6957ZM49.2457 22.7421C49.5621 22.7216 49.935 22.568 50.3645 22.2812C50.8166 21.974 51.2234 21.6156 51.5851 21.2059C51.9693 20.7963 52.2631 20.3764 52.4666 19.9463C52.6926 19.5162 52.7378 19.168 52.6022 18.9017C51.9015 19.4957 51.2347 20.0999 50.6018 20.7144C49.9916 21.3083 49.5395 21.9842 49.2457 22.7421Z" fill="white"/>
<path d="M62.7731 29.6855C62.5923 30.0132 62.2871 30.0848 61.8577 29.9005C61.4282 29.7367 61.0101 29.3987 60.6032 28.8867C60.219 28.3746 59.9252 27.7294 59.7217 26.9511C59.5409 26.1933 59.5974 25.3945 59.8913 24.5548C60.1851 23.6945 60.6937 22.7216 61.4169 21.6361C62.1402 20.5301 62.9426 19.4343 63.8241 18.3488C64.7057 17.2427 65.5872 16.1982 66.4687 15.215C67.3728 14.2319 68.13 13.4229 68.7403 12.7879C68.3786 11.2108 68.0509 9.59278 67.757 7.93375C67.4858 6.25424 67.3502 4.58497 67.3502 2.92594C67.3502 2.35245 67.5875 1.87113 68.0622 1.48198C68.5368 1.09282 69.0567 0.806075 69.6218 0.621739C70.2094 0.437402 70.7293 0.365716 71.1814 0.40668C71.6334 0.427162 71.8481 0.560293 71.8255 0.806075C71.6447 1.42053 71.5204 2.14764 71.4526 2.98739C71.3848 3.82714 71.3622 4.67714 71.3848 5.53738C71.4074 6.39761 71.4526 7.20665 71.5204 7.96447C71.6108 8.7223 71.7012 9.32651 71.7916 9.77711C72.2437 9.347 72.8766 8.75302 73.6903 7.9952C74.5266 7.23737 75.4307 6.45906 76.4026 5.66027C77.3971 4.841 78.4142 4.06269 79.454 3.32534C80.5163 2.56751 81.4995 1.97354 82.4036 1.54342C83.1721 1.17475 83.9745 1.05186 84.8108 1.17475C85.6471 1.29764 86.3704 1.53318 86.9807 1.88137C87.591 2.20908 88.0204 2.56751 88.2691 2.95667C88.5177 3.34582 88.4612 3.60184 88.0996 3.72474C87.6249 3.47895 87.0259 3.45847 86.3026 3.66329C85.6019 3.84763 84.8108 4.18558 83.9293 4.67714C83.0478 5.14822 82.1098 5.75244 81.1153 6.48978C80.1208 7.20665 79.1262 7.98496 78.1317 8.82471C77.1372 9.64398 76.1653 10.4837 75.216 11.344C74.2666 12.2042 73.3964 13.0235 72.6053 13.8018C73.0348 15.5018 73.5885 17.1301 74.2666 18.6867C74.9447 20.2433 75.668 21.5951 76.4365 22.7421C77.205 23.8686 77.9735 24.7084 78.742 25.2614C79.5331 25.8349 80.2451 25.968 80.878 25.6608C81.0362 25.968 80.9458 26.2138 80.6067 26.3981C80.2677 26.6029 79.8043 26.7258 79.2166 26.7668C78.629 26.8078 77.9961 26.777 77.318 26.6746C76.6625 26.5927 76.0975 26.4084 75.6228 26.1216C75.2159 25.8963 74.7526 25.4662 74.2327 24.8313C73.7129 24.2168 73.193 23.4795 72.6731 22.6192C72.1533 21.7385 71.6447 20.7861 71.1474 19.762C70.6502 18.7174 70.232 17.6626 69.893 16.5976C69.3053 17.1915 68.6498 17.8674 67.9265 18.6253C67.2259 19.3831 66.5365 20.1819 65.8584 21.0216C65.2029 21.8409 64.5926 22.6807 64.0276 23.5409C63.4625 24.4011 63.0104 25.2204 62.6714 25.9987C62.355 26.777 62.1854 27.4837 62.1628 28.1186C62.1402 28.7535 62.3437 29.2758 62.7731 29.6855Z" fill="#FFC061"/>
</svg>
